<?xml version="1.0" encoding="UTF-8" standalone="no"?>
<svg
   role="img"
   viewBox="0 0 24 24"
   version="1.1"
   id="svg1"
   sodipodi:docname="minds_logo.svg"
   xml:space="preserve"
   inkscape:version="1.3 (0e150ed6c4, 2023-07-21)"
   xmlns:inkscape="http://www.inkscape.org/namespaces/inkscape"
   xmlns:sodipodi="http://sodipodi.sourceforge.net/DTD/sodipodi-0.dtd"
   xmlns="http://www.w3.org/2000/svg"
   xmlns:svg="http://www.w3.org/2000/svg"><defs
     id="defs1"><inkscape:path-effect
       effect="powerclip"
       id="path-effect12"
       is_visible="true"
       lpeversion="1"
       inverse="true"
       flatten="false"
       hide_clip="false"
       message="Use fill-rule evenodd on &lt;b&gt;fill and stroke&lt;/b&gt; dialog if no flatten result after convert clip to paths." /><clipPath
       clipPathUnits="userSpaceOnUse"
       id="clipPath12"><path
         d="m 14.909606,17.311475 a 0.04329085,0.04329085 0 0 0 0.02497,-0.02747 l 0.576933,-1.845689 2.657393,-3.987753 a 0.04329085,0.04329085 0 0 0 0.0025,-0.0033 0.04329085,0.04329085 0 0 0 8.33e-4,-0.0017 0.04329085,0.04329085 0 0 0 8.32e-4,-0.0017 0.04329085,0.04329085 0 0 0 0.0017,-0.0042 0.04329085,0.04329085 0 0 0 0,-0.0025 0.04329085,0.04329085 0 0 0 0.0017,-0.0025 0.04329085,0.04329085 0 0 0 0,-0.0033 0.04329085,0.04329085 0 0 0 0,-0.0042 0.04329085,0.04329085 0 0 0 0,-0.0025 0.04329085,0.04329085 0 0 0 0,-0.0025 L 17.830073,5.6395986 a 0.04329085,0.04329085 0 0 0 0,-8.328e-4 0.04329085,0.04329085 0 0 0 -8.33e-4,-0.00418 0.04329085,0.04329085 0 0 0 0,-0.00169 0.04329085,0.04329085 0 0 0 -0.0025,-0.00667 0.04329085,0.04329085 0 0 0 -0.0017,-0.00418 0.04329085,0.04329085 0 0 0 -0.0017,-0.00328 0.04329085,0.04329085 0 0 0 -0.0025,-0.00418 0.04329085,0.04329085 0 0 0 -0.0025,-0.00249 0.04329085,0.04329085 0 0 0 0,-8.316e-4 l -3.472426,-3.5864805 -8.31e-4,-0.00166 a 0.04329085,0.04329085 0 0 0 -0.0033,-0.0025 0.04329085,0.04329085 0 0 0 -0.0025,-0.00166 0.04329085,0.04329085 0 0 0 -0.0025,-0.00166 0.04329085,0.04329085 0 0 0 -0.0017,-8.326e-4 0.04329085,0.04329085 0 0 0 -0.0017,-8.324e-4 0.04329085,0.04329085 0 0 0 -0.0017,-8.325e-4 0.04329085,0.04329085 0 0 0 -8.31e-4,0 0.04329085,0.04329085 0 0 0 0,-8.326e-4 0.04329085,0.04329085 0 0 0 -0.0017,0 0.04329085,0.04329085 0 0 0 -0.0017,-8.324e-4 0.04329085,0.04329085 0 0 0 -8.33e-4,0 0.04329085,0.04329085 0 0 0 -0.0042,-0.00166 0.04329085,0.04329085 0 0 0 -0.0033,0 0.04329085,0.04329085 0 0 0 -0.0017,0 0.04329085,0.04329085 0 0 0 -8.31e-4,0 0.04329085,0.04329085 0 0 0 -8.33e-4,0 0.04329085,0.04329085 0 0 0 -0.0025,0 0.04329085,0.04329085 0 0 0 -8.32e-4,0 0.04329085,0.04329085 0 0 0 -8.33e-4,0 H 9.6854883 a 0.04329085,0.04329085 0 0 0 -0.00249,0 0.04329085,0.04329085 0 0 0 -0.00328,0 0.04329085,0.04329085 0 0 0 -0.00328,0 0.04329085,0.04329085 0 0 0 -0.00249,8.326e-4 0.04329085,0.04329085 0 0 0 -0.00249,8.325e-4 0.04329085,0.04329085 0 0 0 -0.00418,0.00166 0.04329085,0.04329085 0 0 0 -0.00328,0.0025 0.04329085,0.04329085 0 0 0 -0.00328,0.00166 0.04329085,0.04329085 0 0 0 -8.316e-4,0 0.04329085,0.04329085 0 0 0 -0.00249,0.00333 0.04329085,0.04329085 0 0 0 -8.317e-4,0 0.04329085,0.04329085 0 0 0 -0.00249,0.0025 L 6.1823381,5.6129576 a 0.04329085,0.04329085 0 0 0 -0.0025,0.00328 0.04329085,0.04329085 0 0 0 -0.00499,0.00746 0.04329085,0.04329085 0 0 0 -0.00166,0.00418 0.04329085,0.04329085 0 0 0 -0.00166,0.00667 0.04329085,0.04329085 0 0 0 0,0.00169 0.04329085,0.04329085 0 0 0 -8.325e-4,0.00249 0.04329085,0.04329085 0 0 0 0,0.00249 l -0.347163,5.7859754 a 0.04329085,0.04329085 0 0 0 0,8.33e-4 0.04329085,0.04329085 0 0 0 0,8.33e-4 0.04329085,0.04329085 0 0 0 0,0.0033 0.04329085,0.04329085 0 0 0 0,0.0033 0.04329085,0.04329085 0 0 0 0,0.0017 0.04329085,0.04329085 0 0 0 0,0.0042 0.04329085,0.04329085 0 0 0 8.326e-4,0 0.04329085,0.04329085 0 0 0 0,0.0025 0.04329085,0.04329085 0 0 0 8.324e-4,0.0017 0.04329085,0.04329085 0 0 0 8.326e-4,0.0017 0.04329085,0.04329085 0 0 0 8.325e-4,0.0017 0.04329085,0.04329085 0 0 0 8.324e-4,8.33e-4 0.04329085,0.04329085 0 0 0 0.00166,0.0025 0.04329085,0.04329085 0 0 0 8.324e-4,0.0025 l 2.6590564,3.987752 0.5761014,1.843191 v 0.0017 a 0.04329085,0.04329085 0 0 0 0,8.32e-4 0.04329085,0.04329085 0 0 0 8.328e-4,0.0017 0.04329085,0.04329085 0 0 0 0.00169,0.0025 0.04329085,0.04329085 0 0 0 0,8.33e-4 0.04329085,0.04329085 0 0 0 8.328e-4,0.0017 0.04329085,0.04329085 0 0 0 0,8.32e-4 0.04329085,0.04329085 0 0 0 0.00169,8.33e-4 0.04329085,0.04329085 0 0 0 8.328e-4,0.0025 0.04329085,0.04329085 0 0 0 8.327e-4,8.33e-4 0.04329085,0.04329085 0 0 0 8.328e-4,8.33e-4 0.04329085,0.04329085 0 0 0 0.00169,0.0017 0.04329085,0.04329085 0 0 0 0.00249,0.0033 0.04329085,0.04329085 0 0 0 0.00169,8.31e-4 0.04329085,0.04329085 0 0 0 0.00169,0.0017 0.04329085,0.04329085 0 0 0 8.316e-4,0 0.04329085,0.04329085 0 0 0 0.00249,0.0025 0.04329085,0.04329085 0 0 0 8.328e-4,0 0.04329085,0.04329085 0 0 0 0.00169,8.33e-4 0.04329085,0.04329085 0 0 0 0.00169,0.0017 0.04329085,0.04329085 0 0 0 8.316e-4,0 0.04329085,0.04329085 0 0 0 8.328e-4,0 0.04329085,0.04329085 0 0 0 8.328e-4,8.33e-4 0.04329085,0.04329085 0 0 0 0.00169,0 0.04329085,0.04329085 0 0 0 8.328e-4,8.33e-4 0.04329085,0.04329085 0 0 0 8.328e-4,0 0.04329085,0.04329085 0 0 0 0.00249,8.32e-4 0.04329085,0.04329085 0 0 0 0.00169,0 0.04329085,0.04329085 0 0 0 0,8.33e-4 0.04329085,0.04329085 0 0 0 0.00249,0 0.04329085,0.04329085 0 0 0 0.00169,0 0.04329085,0.04329085 0 0 0 0.00249,8.32e-4 0.04329085,0.04329085 0 0 0 8.328e-4,0 0.04329085,0.04329085 0 0 0 0.0017,0 h 5.7876538 a 0.04329085,0.04329085 0 0 0 0.01664,-0.0033 z m -0.04828,-0.08325 H 9.41084 l 5.994949,-1.744121 z m 0.514495,-1.825709 -6.1897584,1.799901 2.2502924,-4.726194 z m 0.05661,-0.0666 -3.940298,-2.927127 4.278301,-3.4332964 z m 0.09157,-0.07243 0.333006,-6.2771718 2.221153,2.4442668 z M 9.1144577,17.153294 8.5766528,15.430818 11.266513,12.633563 Z M 8.534197,15.350067 5.9583912,11.487192 11.333117,12.438757 Z m 9.548961,-4.043531 -2.210331,-2.4309468 1.878157,-3.0944636 z m -6.638484,1.02899 -1.6925059,-5.9266827 5.9832939,2.4833958 z m -0.08492,0.01998 L 5.9425745,11.396445 9.667253,6.4304865 Z M 15.758773,8.8089873 9.7646564,6.3197644 14.287717,2.1363699 Z M 15.837863,8.7656983 14.389284,2.19215 17.731836,5.64626 Z M 5.9175946,11.28406 6.2530986,5.6912161 9.6081394,6.3622247 Z M 9.6414437,6.2806351 6.2997228,5.6121248 9.6414437,2.1596803 Z m 0.086577,-0.046622 V 2.0955767 H 14.203628 Z M 9.106131,17.353932 v 3.449114 l 1.391135,-1.16802 z m 0.047447,3.523209 1.27375,0.509499 1.50519,0.60191 -1.390303,-2.278597 z m 2.913808,1.111409 2.778938,-1.111409 -1.390301,-1.167188 z m 2.825569,-1.185503 v -3.449114 l -1.390301,2.281095 z m -5.7093959,-3.489075 2.8164019,4.617968 2.815571,-4.617968 z"
         id="path12"
         style="display:none;fill:#ffffff;fill-opacity:1;stroke:none;stroke-width:0.832517" /><path
         id="lpe_path-effect12"
         style="fill:#ffffff;fill-opacity:1;stroke:none;stroke-width:0.832517"
         class="powerclip"
         d="M -5,-5 H 29 V 29 H -5 Z m 19.909606,22.311475 a 0.04329085,0.04329085 0 0 0 0.02497,-0.02747 l 0.576933,-1.845689 2.657393,-3.987753 a 0.04329085,0.04329085 0 0 0 0.0025,-0.0033 0.04329085,0.04329085 0 0 0 8.33e-4,-0.0017 0.04329085,0.04329085 0 0 0 8.32e-4,-0.0017 0.04329085,0.04329085 0 0 0 0.0017,-0.0042 0.04329085,0.04329085 0 0 0 0,-0.0025 0.04329085,0.04329085 0 0 0 0.0017,-0.0025 0.04329085,0.04329085 0 0 0 0,-0.0033 0.04329085,0.04329085 0 0 0 0,-0.0042 0.04329085,0.04329085 0 0 0 0,-0.0025 0.04329085,0.04329085 0 0 0 0,-0.0025 L 17.830073,5.6395986 a 0.04329085,0.04329085 0 0 0 0,-8.328e-4 0.04329085,0.04329085 0 0 0 -8.33e-4,-0.00418 0.04329085,0.04329085 0 0 0 0,-0.00169 0.04329085,0.04329085 0 0 0 -0.0025,-0.00667 0.04329085,0.04329085 0 0 0 -0.0017,-0.00418 0.04329085,0.04329085 0 0 0 -0.0017,-0.00328 0.04329085,0.04329085 0 0 0 -0.0025,-0.00418 0.04329085,0.04329085 0 0 0 -0.0025,-0.00249 0.04329085,0.04329085 0 0 0 0,-8.316e-4 l -3.472426,-3.5864805 -8.31e-4,-0.00166 a 0.04329085,0.04329085 0 0 0 -0.0033,-0.0025 0.04329085,0.04329085 0 0 0 -0.0025,-0.00166 0.04329085,0.04329085 0 0 0 -0.0025,-0.00166 0.04329085,0.04329085 0 0 0 -0.0017,-8.326e-4 0.04329085,0.04329085 0 0 0 -0.0017,-8.324e-4 0.04329085,0.04329085 0 0 0 -0.0017,-8.325e-4 0.04329085,0.04329085 0 0 0 -8.31e-4,0 0.04329085,0.04329085 0 0 0 0,-8.326e-4 0.04329085,0.04329085 0 0 0 -0.0017,0 0.04329085,0.04329085 0 0 0 -0.0017,-8.324e-4 0.04329085,0.04329085 0 0 0 -8.33e-4,0 0.04329085,0.04329085 0 0 0 -0.0042,-0.00166 0.04329085,0.04329085 0 0 0 -0.0033,0 0.04329085,0.04329085 0 0 0 -0.0017,0 0.04329085,0.04329085 0 0 0 -8.31e-4,0 0.04329085,0.04329085 0 0 0 -8.33e-4,0 0.04329085,0.04329085 0 0 0 -0.0025,0 0.04329085,0.04329085 0 0 0 -8.32e-4,0 0.04329085,0.04329085 0 0 0 -8.33e-4,0 H 9.6854883 a 0.04329085,0.04329085 0 0 0 -0.00249,0 0.04329085,0.04329085 0 0 0 -0.00328,0 0.04329085,0.04329085 0 0 0 -0.00328,0 0.04329085,0.04329085 0 0 0 -0.00249,8.326e-4 0.04329085,0.04329085 0 0 0 -0.00249,8.325e-4 0.04329085,0.04329085 0 0 0 -0.00418,0.00166 0.04329085,0.04329085 0 0 0 -0.00328,0.0025 0.04329085,0.04329085 0 0 0 -0.00328,0.00166 0.04329085,0.04329085 0 0 0 -8.316e-4,0 0.04329085,0.04329085 0 0 0 -0.00249,0.00333 0.04329085,0.04329085 0 0 0 -8.317e-4,0 0.04329085,0.04329085 0 0 0 -0.00249,0.0025 L 6.1823381,5.6129576 a 0.04329085,0.04329085 0 0 0 -0.0025,0.00328 0.04329085,0.04329085 0 0 0 -0.00499,0.00746 0.04329085,0.04329085 0 0 0 -0.00166,0.00418 0.04329085,0.04329085 0 0 0 -0.00166,0.00667 0.04329085,0.04329085 0 0 0 0,0.00169 0.04329085,0.04329085 0 0 0 -8.325e-4,0.00249 0.04329085,0.04329085 0 0 0 0,0.00249 l -0.347163,5.7859754 a 0.04329085,0.04329085 0 0 0 0,8.33e-4 0.04329085,0.04329085 0 0 0 0,8.33e-4 0.04329085,0.04329085 0 0 0 0,0.0033 0.04329085,0.04329085 0 0 0 0,0.0033 0.04329085,0.04329085 0 0 0 0,0.0017 0.04329085,0.04329085 0 0 0 0,0.0042 0.04329085,0.04329085 0 0 0 8.326e-4,0 0.04329085,0.04329085 0 0 0 0,0.0025 0.04329085,0.04329085 0 0 0 8.324e-4,0.0017 0.04329085,0.04329085 0 0 0 8.326e-4,0.0017 0.04329085,0.04329085 0 0 0 8.325e-4,0.0017 0.04329085,0.04329085 0 0 0 8.324e-4,8.33e-4 0.04329085,0.04329085 0 0 0 0.00166,0.0025 0.04329085,0.04329085 0 0 0 8.324e-4,0.0025 l 2.6590564,3.987752 0.5761014,1.843191 v 0.0017 a 0.04329085,0.04329085 0 0 0 0,8.32e-4 0.04329085,0.04329085 0 0 0 8.328e-4,0.0017 0.04329085,0.04329085 0 0 0 0.00169,0.0025 0.04329085,0.04329085 0 0 0 0,8.33e-4 0.04329085,0.04329085 0 0 0 8.328e-4,0.0017 0.04329085,0.04329085 0 0 0 0,8.32e-4 0.04329085,0.04329085 0 0 0 0.00169,8.33e-4 0.04329085,0.04329085 0 0 0 8.328e-4,0.0025 0.04329085,0.04329085 0 0 0 8.327e-4,8.33e-4 0.04329085,0.04329085 0 0 0 8.328e-4,8.33e-4 0.04329085,0.04329085 0 0 0 0.00169,0.0017 0.04329085,0.04329085 0 0 0 0.00249,0.0033 0.04329085,0.04329085 0 0 0 0.00169,8.31e-4 0.04329085,0.04329085 0 0 0 0.00169,0.0017 0.04329085,0.04329085 0 0 0 8.316e-4,0 0.04329085,0.04329085 0 0 0 0.00249,0.0025 0.04329085,0.04329085 0 0 0 8.328e-4,0 0.04329085,0.04329085 0 0 0 0.00169,8.33e-4 0.04329085,0.04329085 0 0 0 0.00169,0.0017 0.04329085,0.04329085 0 0 0 8.316e-4,0 0.04329085,0.04329085 0 0 0 8.328e-4,0 0.04329085,0.04329085 0 0 0 8.328e-4,8.33e-4 0.04329085,0.04329085 0 0 0 0.00169,0 0.04329085,0.04329085 0 0 0 8.328e-4,8.33e-4 0.04329085,0.04329085 0 0 0 8.328e-4,0 0.04329085,0.04329085 0 0 0 0.00249,8.32e-4 0.04329085,0.04329085 0 0 0 0.00169,0 0.04329085,0.04329085 0 0 0 0,8.33e-4 0.04329085,0.04329085 0 0 0 0.00249,0 0.04329085,0.04329085 0 0 0 0.00169,0 0.04329085,0.04329085 0 0 0 0.00249,8.32e-4 0.04329085,0.04329085 0 0 0 8.328e-4,0 0.04329085,0.04329085 0 0 0 0.0017,0 h 5.7876538 a 0.04329085,0.04329085 0 0 0 0.01664,-0.0033 z m -0.04828,-0.08325 0.544463,-1.744121 -5.994949,1.744121 z m 0.514495,-1.825709 -3.939466,-2.926293 -2.2502924,4.726194 z m 0.05661,-0.0666 0.338003,-6.3604234 -4.278301,3.4332964 z m 0.09157,-0.07243 2.554159,-3.832905 -2.221153,-2.4442668 z m -6.4095433,1.889808 2.1520553,-4.519731 -2.6898602,2.797255 z m -0.5802607,-1.803227 2.79892,-2.91131 -5.3747258,-0.951565 z m 9.548961,-4.043531 -0.332174,-5.5254104 -1.878157,3.0944636 z m -6.638484,1.02899 4.290788,-3.4432869 -5.9832939,-2.4833958 z m -0.08492,0.01998 L 9.667253,6.4304865 5.9425745,11.396445 Z M 15.758773,8.8089873 14.287717,2.1363699 9.7646564,6.3197644 Z M 15.837863,8.7656983 17.731836,5.64626 14.389284,2.19215 Z M 5.9175946,11.28406 9.6081394,6.3622247 6.2530986,5.6912161 Z M 9.6414437,6.2806351 V 2.1596803 L 6.2997228,5.6121248 Z M 9.7280207,6.2340131 14.203628,2.0955767 H 9.7280207 Z M 9.106131,17.353932 v 3.449114 l 1.391135,-1.16802 z m 0.047447,3.523209 1.27375,0.509499 1.50519,0.60191 -1.390303,-2.278597 z m 2.913808,1.111409 2.778938,-1.111409 -1.390301,-1.167188 z m 2.825569,-1.185503 v -3.449114 l -1.390301,2.281095 z m -5.7093959,-3.489075 2.8164019,4.617968 2.815571,-4.617968 z" /></clipPath></defs><sodipodi:namedview
     id="namedview1"
     pagecolor="#505050"
     bordercolor="#ffffff"
     borderopacity="1"
     inkscape:showpageshadow="0"
     inkscape:pageopacity="0"
     inkscape:pagecheckerboard="1"
     inkscape:deskcolor="#505050"
     inkscape:zoom="26.114614"
     inkscape:cx="12.081358"
     inkscape:cy="13.919409"
     inkscape:window-width="1155"
     inkscape:window-height="981"
     inkscape:window-x="-8"
     inkscape:window-y="0"
     inkscape:window-maximized="0"
     inkscape:current-layer="layer1" /><g
     inkscape:groupmode="layer"
     id="layer1"
     inkscape:label="merge"
     clip-path="url(#clipPath12)"
     inkscape:path-effect="#path-effect12"><path
       id="rect9"
       style="fill:#000000;fill-opacity:1;stroke-width:1.02966"
       d="M 5,0 C 2.2390028,0 0,2.2390028 0,5 v 14 c 0,2.760997 2.2390028,5 5,5 h 14 c 2.761997,0 5,-2.239003 5,-5 V 5 C 24,2.2390028 21.761997,0 19,0 Z"
       inkscape:original-d="M 5 0 C 2.2390028 0 0 2.2390028 0 5 L 0 19 C 0 21.760997 2.2390028 24 5 24 L 19 24 C 21.761997 24 24 21.760997 24 19 L 24 5 C 24 2.2390028 21.761997 0 19 0 L 5 0 z " /><path
       style="fill:#808080;fill-opacity:1;stroke:none;stroke-width:0.0382927"
       d="M 9.7455012,4.1594961 V 2.1252468 h 2.1917548 2.191756 l -0.171814,0.1669834 c -0.0945,0.091841 -0.869698,0.8104078 -1.722669,1.5968153 -0.852971,0.7864076 -1.761944,1.6266772 -2.019942,1.8672659 l -0.4690858,0.437434 z"
       id="path19"
       inkscape:original-d="M 9.7455012,4.1594961 V 2.1252468 h 2.1917548 2.191756 l -0.171814,0.1669834 c -0.0945,0.091841 -0.869698,0.8104078 -1.722669,1.5968153 -0.852971,0.7864076 -1.761944,1.6266772 -2.019942,1.8672659 l -0.4690858,0.437434 z" /><path
       style="fill:#808080;fill-opacity:1;stroke:none;stroke-width:0.0382927"
       d="M 7.9559951,5.9261108 6.3388064,5.5990577 7.3433114,4.5623539 C 7.8957891,3.9921668 8.6359307,3.232099 8.9880704,2.8733144 l 0.6402539,-0.6523357 0.00115,2.0199418 c 6.321e-4,1.110968 -0.011774,2.0182098 -0.02757,2.0160926 C 9.5861077,6.2548959 8.845449,6.10599 7.9559951,5.9261108 Z"
       id="path20"
       inkscape:original-d="M 7.9559951,5.9261108 6.3388064,5.5990577 7.3433114,4.5623539 C 7.8957891,3.9921668 8.6359307,3.232099 8.9880704,2.8733144 l 0.6402539,-0.6523357 0.00115,2.0199418 c 6.321e-4,1.110968 -0.011774,2.0182098 -0.02757,2.0160926 C 9.5861077,6.2548959 8.845449,6.10599 7.9559951,5.9261108 Z" /><path
       style="fill:#808080;fill-opacity:1;stroke:none;stroke-width:0.0382927"
       d="M 12.741908,7.534569 C 11.136006,6.8672925 9.823417,6.3120397 9.8250429,6.3006741 c 0.0036,-0.025163 4.3928381,-4.0757793 4.4310641,-4.0892146 0.0149,-0.00524 0.34464,1.433614 0.732764,3.1974434 0.388124,1.7638293 0.713229,3.2371181 0.722455,3.2739749 0.0092,0.036857 0.0018,0.066542 -0.01641,0.065967 -0.01825,-5.751e-4 -1.347105,-0.5469991 -2.953006,-1.2142753 z"
       id="path21"
       inkscape:original-d="M 12.741908,7.534569 C 11.136006,6.8672925 9.823417,6.3120397 9.8250429,6.3006741 c 0.0036,-0.025163 4.3928381,-4.0757793 4.4310641,-4.0892146 0.0149,-0.00524 0.34464,1.433614 0.732764,3.1974434 0.388124,1.7638293 0.713229,3.2371181 0.722455,3.2739749 0.0092,0.036857 0.0018,0.066542 -0.01641,0.065967 -0.01825,-5.751e-4 -1.347105,-0.5469991 -2.953006,-1.2142753 z" /><path
       style="fill:#808080;fill-opacity:1;stroke:none;stroke-width:0.0382927"
       d="M 8.6082796,11.852022 C 7.2140811,11.603297 6.0544242,11.39348 6.0312643,11.385759 6.0081043,11.37804 6.8127934,10.273269 7.8194623,8.9307134 9.2283568,7.0517253 9.656202,6.505238 9.6777081,6.5571735 c 0.030151,0.072813 1.6377949,5.7014335 1.6377949,5.7341855 0,0.04004 -0.222705,0.0039 -2.7072234,-0.439337 z"
       id="path22"
       inkscape:original-d="M 8.6082796,11.852022 C 7.2140811,11.603297 6.0544242,11.39348 6.0312643,11.385759 6.0081043,11.37804 6.8127934,10.273269 7.8194623,8.9307134 9.2283568,7.0517253 9.656202,6.505238 9.6777081,6.5571735 c 0.030151,0.072813 1.6377949,5.7014335 1.6377949,5.7341855 0,0.04004 -0.222705,0.0039 -2.7072234,-0.439337 z" /><path
       style="fill:#808080;fill-opacity:1;stroke:none;stroke-width:0.0382927"
       d="M 5.9540767,11.083832 C 5.9532653,10.912277 6.2681004,5.7441267 6.2801282,5.731558 6.2952746,5.7157306 9.3970545,6.3309817 9.489025,6.3680562 9.5470813,6.3914595 9.27774,6.7696572 7.7924008,8.7503846 6.8213009,10.045364 6.0105096,11.121263 5.9906425,11.141271 c -0.022704,0.02287 -0.036287,0.0015 -0.036566,-0.05744 z"
       id="path23"
       inkscape:original-d="M 5.9540767,11.083832 C 5.9532653,10.912277 6.2681004,5.7441267 6.2801282,5.731558 6.2952746,5.7157306 9.3970545,6.3309817 9.489025,6.3680562 9.5470813,6.3914595 9.27774,6.7696572 7.7924008,8.7503846 6.8213009,10.045364 6.0105096,11.121263 5.9906425,11.141271 c -0.022704,0.02287 -0.036287,0.0015 -0.036566,-0.05744 z" /><path
       style="fill:#808080;fill-opacity:1;stroke:none;stroke-width:0.0382927"
       d="m 15.834046,8.6905203 c 0,-0.018613 -0.310987,-1.444963 -0.691082,-3.1696669 -0.380095,-1.7247039 -0.685591,-3.1522984 -0.67888,-3.1724322 0.0067,-0.020134 0.739274,0.7153701 1.627918,1.6344533 l 1.615715,1.6710603 -0.08821,0.1407196 c -0.04851,0.077396 -0.464089,0.7610619 -0.923499,1.5192581 -0.909133,1.5004036 -0.861965,1.4250733 -0.861965,1.3766078 z"
       id="path24"
       inkscape:original-d="m 15.834046,8.6905203 c 0,-0.018613 -0.310987,-1.444963 -0.691082,-3.1696669 -0.380095,-1.7247039 -0.685591,-3.1522984 -0.67888,-3.1724322 0.0067,-0.020134 0.739274,0.7153701 1.627918,1.6344533 l 1.615715,1.6710603 -0.08821,0.1407196 c -0.04851,0.077396 -0.464089,0.7610619 -0.923499,1.5192581 -0.909133,1.5004036 -0.861965,1.4250733 -0.861965,1.3766078 z" /><path
       style="fill:#808080;fill-opacity:1;stroke:none;stroke-width:0.0382927"
       d="M 10.617962,9.3725052 C 10.162286,7.7773311 9.7937023,6.4679461 9.7988876,6.4627608 c 0.00979,-0.00979 5.7762434,2.3794662 5.8442094,2.421472 0.0332,0.020516 -4.116576,3.3885892 -4.175047,3.3885892 -0.01187,0 -0.394411,-1.305143 -0.850088,-2.9003168 z"
       id="path25"
       inkscape:original-d="M 10.617962,9.3725052 C 10.162286,7.7773311 9.7937023,6.4679461 9.7988876,6.4627608 c 0.00979,-0.00979 5.7762434,2.3794662 5.8442094,2.421472 0.0332,0.020516 -4.116576,3.3885892 -4.175047,3.3885892 -0.01187,0 -0.394411,-1.305143 -0.850088,-2.9003168 z" /><path
       style="fill:#808080;fill-opacity:1;stroke:none;stroke-width:0.0382927"
       d="M 16.982828,10.062788 C 16.403651,9.4237893 15.931746,8.8799024 15.934152,8.8541506 c 0.0024,-0.025752 0.411659,-0.7176529 0.909453,-1.537558 0.722437,-1.1899122 0.905078,-1.4665297 0.905078,-1.3707796 0,0.065976 0.06954,1.269148 0.154536,2.6737147 0.085,1.4045673 0.149615,2.5653043 0.143598,2.5794173 -0.006,0.01411 -0.484811,-0.497158 -1.063989,-1.136157 z"
       id="path26"
       inkscape:original-d="M 16.982828,10.062788 C 16.403651,9.4237893 15.931746,8.8799024 15.934152,8.8541506 c 0.0024,-0.025752 0.411659,-0.7176529 0.909453,-1.537558 0.722437,-1.1899122 0.905078,-1.4665297 0.905078,-1.3707796 0,0.065976 0.06954,1.269148 0.154536,2.6737147 0.085,1.4045673 0.149615,2.5653043 0.143598,2.5794173 -0.006,0.01411 -0.484811,-0.497158 -1.063989,-1.136157 z" /><path
       style="fill:#808080;fill-opacity:1;stroke:none;stroke-width:0.0382927"
       d="m 15.566177,14.969269 c 2.43e-4,-0.254961 0.302639,-5.883986 0.316857,-5.8982033 0.0062,-0.0062 0.496775,0.523232 1.090167,1.1765153 l 1.078895,1.187789 -1.229064,1.84513 c -0.675984,1.014822 -1.235357,1.85231 -1.243049,1.861086 -0.0077,0.0088 -0.01391,-0.06877 -0.01381,-0.172317 z"
       id="path27"
       inkscape:original-d="m 15.566177,14.969269 c 2.43e-4,-0.254961 0.302639,-5.883986 0.316857,-5.8982033 0.0062,-0.0062 0.496775,0.523232 1.090167,1.1765153 l 1.078895,1.187789 -1.229064,1.84513 c -0.675984,1.014822 -1.235357,1.85231 -1.243049,1.861086 -0.0077,0.0088 -0.01391,-0.06877 -0.01381,-0.172317 z" /><path
       style="fill:#808080;fill-opacity:1;stroke:none;stroke-width:0.0382927"
       d="m 13.501436,13.876232 c -1.040733,-0.775105 -1.907668,-1.424706 -1.92652,-1.443559 -0.02017,-0.02017 0.833653,-0.730643 2.075221,-1.726791 l 2.109497,-1.692514 -0.02264,0.2990543 c -0.01245,0.1644799 -0.08973,1.5720167 -0.171737,3.1278587 -0.082,1.555843 -0.154156,2.832501 -0.160338,2.837019 -0.0062,0.0045 -0.86275,-0.625963 -1.903483,-1.401068 z"
       id="path28"
       inkscape:original-d="m 13.501436,13.876232 c -1.040733,-0.775105 -1.907668,-1.424706 -1.92652,-1.443559 -0.02017,-0.02017 0.833653,-0.730643 2.075221,-1.726791 l 2.109497,-1.692514 -0.02264,0.2990543 c -0.01245,0.1644799 -0.08973,1.5720167 -0.171737,3.1278587 -0.082,1.555843 -0.154156,2.832501 -0.160338,2.837019 -0.0062,0.0045 -0.86275,-0.625963 -1.903483,-1.401068 z" /><path
       style="fill:#808080;fill-opacity:1;stroke:none;stroke-width:0.0382927"
       d="M 7.2542387,13.399107 C 6.4969849,12.263572 6.0158719,11.508223 6.0573979,11.520062 c 0.038192,0.01089 1.2239658,0.222412 2.6350531,0.470054 1.411087,0.247641 2.572,0.454844 2.579805,0.46045 0.01508,0.01083 -2.7112371,2.847382 -2.7367319,2.847382 -0.00825,0 -0.5848309,-0.854479 -1.2812854,-1.898841 z"
       id="path29"
       inkscape:original-d="M 7.2542387,13.399107 C 6.4969849,12.263572 6.0158719,11.508223 6.0573979,11.520062 c 0.038192,0.01089 1.2239658,0.222412 2.6350531,0.470054 1.411087,0.247641 2.572,0.454844 2.579805,0.46045 0.01508,0.01083 -2.7112371,2.847382 -2.7367319,2.847382 -0.00825,0 -0.5848309,-0.854479 -1.2812854,-1.898841 z" /><path
       style="fill:#808080;fill-opacity:1;stroke:none;stroke-width:0.0382927"
       d="M 8.8647683,16.285988 C 8.7278718,15.843044 8.6158655,15.467482 8.6158655,15.451405 c 0,-0.04058 2.4757795,-2.611059 2.4956865,-2.591152 0.01254,0.01254 -1.8607061,3.988389 -1.9716018,4.184591 -0.014454,0.02557 -0.1382854,-0.315913 -0.2751819,-0.758856 z"
       id="path30"
       inkscape:original-d="M 8.8647683,16.285988 C 8.7278718,15.843044 8.6158655,15.467482 8.6158655,15.451405 c 0,-0.04058 2.4757795,-2.611059 2.4956865,-2.591152 0.01254,0.01254 -1.8607061,3.988389 -1.9716018,4.184591 -0.014454,0.02557 -0.1382854,-0.315913 -0.2751819,-0.758856 z" /><path
       style="fill:#808080;fill-opacity:1;stroke:none;stroke-width:0.0382927"
       d="m 9.2476956,17.14313 c 0,-0.01239 0.494382,-1.060977 1.0986264,-2.330186 0.722726,-1.518078 1.112512,-2.296629 1.139209,-2.275433 0.02232,0.01772 0.85909,0.639892 1.859487,1.382601 1.000398,0.742708 1.85573,1.379046 1.900739,1.414082 0.0785,0.06111 -0.0026,0.08823 -1.991222,0.665899 -1.140181,0.331208 -2.508157,0.728955 -3.039948,0.883883 -0.5317901,0.154927 -0.9668914,0.271547 -0.9668914,0.259154 z"
       id="path31"
       inkscape:original-d="m 9.2476956,17.14313 c 0,-0.01239 0.494382,-1.060977 1.0986264,-2.330186 0.722726,-1.518078 1.112512,-2.296629 1.139209,-2.275433 0.02232,0.01772 0.85909,0.639892 1.859487,1.382601 1.000398,0.742708 1.85573,1.379046 1.900739,1.414082 0.0785,0.06111 -0.0026,0.08823 -1.991222,0.665899 -1.140181,0.331208 -2.508157,0.728955 -3.039948,0.883883 -0.5317901,0.154927 -0.9668914,0.271547 -0.9668914,0.259154 z" /><path
       style="fill:#666666;fill-opacity:1;stroke:none;stroke-width:0.0382927"
       d="m 9.6114766,17.192279 c 0.131783,-0.05004 5.7353844,-1.666581 5.7442614,-1.65712 0.006,0.0064 -0.104761,0.382174 -0.246211,0.834985 l -0.257181,0.823294 -2.639581,0.0067 c -1.45177,0.0037 -2.6223494,1.47e-4 -2.6012884,-0.0079 z"
       id="path32"
       inkscape:original-d="m 9.6114766,17.192279 c 0.131783,-0.05004 5.7353844,-1.666581 5.7442614,-1.65712 0.006,0.0064 -0.104761,0.382174 -0.246211,0.834985 l -0.257181,0.823294 -2.639581,0.0067 c -1.45177,0.0037 -2.6223494,1.47e-4 -2.6012884,-0.0079 z" /><path
       style="fill:#666666;fill-opacity:1;stroke:none;stroke-width:0.0382927"
       d="m 9.8252777,17.159943 c 0.035701,-0.03211 5.4785023,-1.601573 5.4942343,-1.584298 0.0097,0.01062 -0.06205,0.25131 -0.313774,1.052975 L 14.8344,17.174292 h -2.512539 c -1.381896,0 -2.5053587,-0.0065 -2.4965833,-0.01435 z"
       id="path33"
       inkscape:original-d="m 9.8252777,17.159943 c 0.035701,-0.03211 5.4785023,-1.601573 5.4942343,-1.584298 0.0097,0.01062 -0.06205,0.25131 -0.313774,1.052975 L 14.8344,17.174292 h -2.512539 c -1.381896,0 -2.5053587,-0.0065 -2.4965833,-0.01435 z" /><path
       style="fill:#666666;fill-opacity:1;stroke:none;stroke-width:0.0382927"
       d="M 9.7455012,4.1408555 V 2.1252468 h 2.1635398 c 1.189947,0 2.163539,0.00653 2.163539,0.014506 0,0.011599 -1.412909,1.3234172 -4.1451883,3.848607 L 9.7455012,6.156464 Z"
       id="path34"
       inkscape:original-d="M 9.7455012,4.1408555 V 2.1252468 h 2.1635398 c 1.189947,0 2.163539,0.00653 2.163539,0.014506 0,0.011599 -1.412909,1.3234172 -4.1451883,3.848607 L 9.7455012,6.156464 Z" /><path
       style="fill:#666666;fill-opacity:1;stroke:none;stroke-width:0.0382927"
       d="M 7.9457426,5.9080299 C 7.113833,5.7388169 6.4263733,5.5942688 6.4180545,5.5868117 6.401926,5.572354 7.2715321,4.664845 8.7076292,3.1974434 L 9.588311,2.2975641 9.5903207,4.2600668 C 9.5922105,6.105624 9.588337,6.2223647 9.525318,6.2191297 9.4884612,6.2172377 8.7776523,6.0772428 7.9457426,5.9080299 Z"
       id="path35"
       inkscape:original-d="M 7.9457426,5.9080299 C 7.113833,5.7388169 6.4263733,5.5942688 6.4180545,5.5868117 6.401926,5.572354 7.2715321,4.664845 8.7076292,3.1974434 L 9.588311,2.2975641 9.5903207,4.2600668 C 9.5922105,6.105624 9.588337,6.2223647 9.525318,6.2191297 9.4884612,6.2172377 8.7776523,6.0772428 7.9457426,5.9080299 Z" /><path
       style="fill:#666666;fill-opacity:1;stroke:none;stroke-width:0.0382927"
       d="m 5.9928131,10.86711 c 0,-0.296156 0.2421795,-4.3581121 0.2902086,-4.8675239 l 0.022829,-0.2421299 0.1593964,0.025702 c 0.2791305,0.045008 2.8363184,0.5556262 2.9262331,0.5843091 0.084037,0.026808 0.080858,0.035732 -0.1189295,0.333824 -0.1860804,0.2776408 -2.769738,3.7461357 -3.1294271,4.2011767 l -0.1503103,0.190156 z"
       id="path36"
       inkscape:original-d="m 5.9928131,10.86711 c 0,-0.296156 0.2421795,-4.3581121 0.2902086,-4.8675239 l 0.022829,-0.2421299 0.1593964,0.025702 c 0.2791305,0.045008 2.8363184,0.5556262 2.9262331,0.5843091 0.084037,0.026808 0.080858,0.035732 -0.1189295,0.333824 -0.1860804,0.2776408 -2.769738,3.7461357 -3.1294271,4.2011767 l -0.1503103,0.190156 z" /><path
       style="fill:#999999;fill-opacity:1;stroke:none;stroke-width:0.0382927"
       d="m 15.818409,8.5297069 c -0.02328,-0.112851 -1.17513,-5.4149271 -1.266274,-5.8287786 -0.02999,-0.1361868 -0.04936,-0.2527885 -0.04303,-0.259115 0.01157,-0.011571 1.386284,1.3732945 2.54525,2.5640486 0.342866,0.3522695 0.615891,0.6538248 0.606723,0.6701229 -0.110575,0.196572 -1.798425,2.9590271 -1.807955,2.9590271 -0.0071,0 -0.02277,-0.047387 -0.03471,-0.105305 z"
       id="path37"
       inkscape:original-d="m 15.818409,8.5297069 c -0.02328,-0.112851 -1.17513,-5.4149271 -1.266274,-5.8287786 -0.02999,-0.1361868 -0.04936,-0.2527885 -0.04303,-0.259115 0.01157,-0.011571 1.386284,1.3732945 2.54525,2.5640486 0.342866,0.3522695 0.615891,0.6538248 0.606723,0.6701229 -0.110575,0.196572 -1.798425,2.9590271 -1.807955,2.9590271 -0.0071,0 -0.02277,-0.047387 -0.03471,-0.105305 z" /><path
       style="fill:#999999;fill-opacity:1;stroke:none;stroke-width:0.0382927"
       d="M 17.268182,10.335905 C 16.86701,9.8953472 16.40599,9.3819548 16.243693,9.1950326 L 15.948608,8.855174 16.020238,8.7355198 C 16.7131,7.5781294 16.98398,7.1315275 17.323786,6.5863505 c 0.381039,-0.6113304 0.406308,-0.6428141 0.414908,-0.5169519 0.0601,0.8794854 0.279895,4.9253654 0.270891,4.9863054 -0.0095,0.06428 -0.164053,-0.08577 -0.741403,-0.719799 z"
       id="path38"
       inkscape:original-d="M 17.268182,10.335905 C 16.86701,9.8953472 16.40599,9.3819548 16.243693,9.1950326 L 15.948608,8.855174 16.020238,8.7355198 C 16.7131,7.5781294 16.98398,7.1315275 17.323786,6.5863505 c 0.381039,-0.6113304 0.406308,-0.6428141 0.414908,-0.5169519 0.0601,0.8794854 0.279895,4.9253654 0.270891,4.9863054 -0.0095,0.06428 -0.164053,-0.08577 -0.741403,-0.719799 z" /><path
       style="fill:#999999;fill-opacity:1;stroke:none;stroke-width:0.0382927"
       d="m 15.604546,14.73313 c 1.4e-4,-0.163223 0.04307,-1.098044 0.0954,-2.077381 0.05233,-0.979337 0.113123,-2.116631 0.135098,-2.52732 0.02198,-0.41069 0.04867,-0.8022909 0.05933,-0.8702246 l 0.01938,-0.1235159 0.241319,0.2575404 c 0.132726,0.1416473 0.607893,0.6593031 1.055928,1.1503471 l 0.814608,0.892807 -1.197615,1.797258 c -0.658688,0.988492 -1.203484,1.797258 -1.210658,1.797258 -0.0072,0 -0.01293,-0.133546 -0.01279,-0.296769 z"
       id="path39"
       inkscape:original-d="m 15.604546,14.73313 c 1.4e-4,-0.163223 0.04307,-1.098044 0.0954,-2.077381 0.05233,-0.979337 0.113123,-2.116631 0.135098,-2.52732 0.02198,-0.41069 0.04867,-0.8022909 0.05933,-0.8702246 l 0.01938,-0.1235159 0.241319,0.2575404 c 0.132726,0.1416473 0.607893,0.6593031 1.055928,1.1503471 l 0.814608,0.892807 -1.197615,1.797258 c -0.658688,0.988492 -1.203484,1.797258 -1.210658,1.797258 -0.0072,0 -0.01293,-0.133546 -0.01279,-0.296769 z" /><path
       style="fill:#b3b3b3;fill-opacity:1;stroke:none;stroke-width:0.0382927"
       d="m 14.258872,14.406724 c -2.009437,-1.489516 -2.636327,-1.961386 -2.636678,-1.984672 -0.001,-0.06935 4.071837,-3.345499 4.090287,-3.2901498 0.02135,0.064043 -0.3018,5.9496158 -0.330613,6.0215308 -0.02186,0.05456 -0.217771,-0.0757 -1.122996,-0.746709 z"
       id="path40"
       inkscape:original-d="m 14.258872,14.406724 c -2.009437,-1.489516 -2.636327,-1.961386 -2.636678,-1.984672 -0.001,-0.06935 4.071837,-3.345499 4.090287,-3.2901498 0.02135,0.064043 -0.3018,5.9496158 -0.330613,6.0215308 -0.02186,0.05456 -0.217771,-0.0757 -1.122996,-0.746709 z" /><path
       style="fill:#b3b3b3;fill-opacity:1;stroke:none;stroke-width:0.0382927"
       d="m 9.3185997,17.030694 c 0.019418,-0.03686 0.347525,-0.726493 0.7291263,-1.532525 0.865023,-1.827134 1.414828,-2.928084 1.454283,-2.912112 0.116853,0.0473 3.717684,2.766572 3.693081,2.788933 -0.04739,0.04307 -0.52206,0.191213 -1.888364,0.589348 -2.476122,0.721529 -3.9189719,1.133368 -3.9706796,1.133368 -0.038162,0 -0.042987,-0.01853 -0.017447,-0.06701 z"
       id="path41"
       inkscape:original-d="m 9.3185997,17.030694 c 0.019418,-0.03686 0.347525,-0.726493 0.7291263,-1.532525 0.865023,-1.827134 1.414828,-2.928084 1.454283,-2.912112 0.116853,0.0473 3.717684,2.766572 3.693081,2.788933 -0.04739,0.04307 -0.52206,0.191213 -1.888364,0.589348 -2.476122,0.721529 -3.9189719,1.133368 -3.9706796,1.133368 -0.038162,0 -0.042987,-0.01853 -0.017447,-0.06701 z" /><path
       style="fill:#b3b3b3;fill-opacity:1;stroke:none;stroke-width:0.0382927"
       d="M 9.0997486,16.916004 C 9.078148,16.875643 8.9655751,16.535569 8.8495865,16.160284 8.6686043,15.57471 8.6457842,15.467832 8.6886661,15.406609 c 0.086867,-0.12402 2.2926419,-2.40855 2.3093689,-2.391823 0.01861,0.01861 -1.78326,3.879936 -1.8487276,3.961749 -0.00566,0.0071 -0.027958,-0.02017 -0.049559,-0.06053 z"
       id="path42"
       inkscape:original-d="M 9.0997486,16.916004 C 9.078148,16.875643 8.9655751,16.535569 8.8495865,16.160284 8.6686043,15.57471 8.6457842,15.467832 8.6886661,15.406609 c 0.086867,-0.12402 2.2926419,-2.40855 2.3093689,-2.391823 0.01861,0.01861 -1.78326,3.879936 -1.8487276,3.961749 -0.00566,0.0071 -0.027958,-0.02017 -0.049559,-0.06053 z" /><path
       style="fill:#999999;fill-opacity:1;stroke:none;stroke-width:0.0382927"
       d="M 7.5397451,13.78156 C 6.5545358,12.307327 6.091106,11.586445 6.1146691,11.564802 c 0.018671,-0.01715 4.9416279,0.857696 5.0263069,0.893211 0.06446,0.02704 -0.03254,0.142974 -0.727562,0.869596 -0.4410655,0.46112 -1.0440954,1.087058 -1.3400663,1.390972 l -0.538129,0.552572 z"
       id="path43"
       inkscape:original-d="M 7.5397451,13.78156 C 6.5545358,12.307327 6.091106,11.586445 6.1146691,11.564802 c 0.018671,-0.01715 4.9416279,0.857696 5.0263069,0.893211 0.06446,0.02704 -0.03254,0.142974 -0.727562,0.869596 -0.4410655,0.46112 -1.0440954,1.087058 -1.3400663,1.390972 l -0.538129,0.552572 z" /><path
       style="fill:#999999;fill-opacity:1;stroke:none;stroke-width:0.0382927"
       d="M 9.7455012,4.123144 V 2.1252468 h 0.9127808 c 0.50203,0 1.46151,0.011464 2.132178,0.025476 l 1.219396,0.025476 -0.228012,0.2138539 C 13.510292,2.6447417 9.9558501,5.9324358 9.8316599,6.0437888 l -0.086159,0.077253 z"
       id="path44"
       inkscape:original-d="M 9.7455012,4.123144 V 2.1252468 h 0.9127808 c 0.50203,0 1.46151,0.011464 2.132178,0.025476 l 1.219396,0.025476 -0.228012,0.2138539 C 13.510292,2.6447417 9.9558501,5.9324358 9.8316599,6.0437888 l -0.086159,0.077253 z" /><path
       style="fill:#999999;fill-opacity:1;stroke:none;stroke-width:0.0382927"
       d="m 9.3569479,16.992401 c 0.019449,-0.03686 0.2802736,-0.583964 0.5796108,-1.215794 0.5294243,-1.11749 1.4560743,-3.008081 1.5282653,-3.118033 0.04321,-0.06582 0.166611,0.02107 1.975926,1.391342 1.468453,1.112118 1.704027,1.293573 1.704027,1.312563 0,0.0253 -0.201217,0.09219 -1.020961,0.339372 -1.249211,0.376688 -4.6759637,1.357563 -4.7427371,1.357563 -0.044602,0 -0.050642,-0.01677 -0.024131,-0.06701 z"
       id="path45"
       inkscape:original-d="m 9.3569479,16.992401 c 0.019449,-0.03686 0.2802736,-0.583964 0.5796108,-1.215794 0.5294243,-1.11749 1.4560743,-3.008081 1.5282653,-3.118033 0.04321,-0.06582 0.166611,0.02107 1.975926,1.391342 1.468453,1.112118 1.704027,1.293573 1.704027,1.312563 0,0.0253 -0.201217,0.09219 -1.020961,0.339372 -1.249211,0.376688 -4.6759637,1.357563 -4.7427371,1.357563 -0.044602,0 -0.050642,-0.01677 -0.024131,-0.06701 z" /><path
       style="fill:#666666;fill-opacity:1;stroke:none;stroke-width:0.0382927"
       d="m 9.0933137,16.845619 c -0.05311,-0.13969 -0.3637191,-1.149399 -0.3969893,-1.290508 -0.022278,-0.09449 0.00865,-0.142412 0.2718369,-0.42122 0.9400964,-0.995897 1.9070267,-1.980184 1.9167147,-1.95112 0.01258,0.03775 -1.678105,3.698237 -1.7355012,3.757502 -0.00793,0.0082 -0.033156,-0.03441 -0.056061,-0.09465 z"
       id="path46"
       inkscape:original-d="m 9.0933137,16.845619 c -0.05311,-0.13969 -0.3637191,-1.149399 -0.3969893,-1.290508 -0.022278,-0.09449 0.00865,-0.142412 0.2718369,-0.42122 0.9400964,-0.995897 1.9070267,-1.980184 1.9167147,-1.95112 0.01258,0.03775 -1.678105,3.698237 -1.7355012,3.757502 -0.00793,0.0082 -0.033156,-0.03441 -0.056061,-0.09465 z" /><path
       style="fill:#999999;fill-opacity:1;stroke:none;stroke-width:0.0382927"
       d="m 9.3625739,17.038814 c 0,-0.08298 2.1076311,-4.383065 2.1483021,-4.383065 0.04035,0 1.03209,0.733276 2.418404,1.788123 0.898515,0.68368 1.172674,0.911006 1.128502,0.935725 -0.06686,0.03742 -0.875138,0.289255 -1.770203,0.551546 -0.336976,0.09875 -0.621299,0.190533 -0.63183,0.203966 -0.01053,0.01343 -0.07068,0.02824 -0.133657,0.03289 -0.06298,0.0047 -0.120455,0.02631 -0.127722,0.0481 -0.0073,0.0218 -0.02805,0.03047 -0.04617,0.01926 -0.01813,-0.01121 -0.572382,0.13352 -1.23167,0.321611 -1.6120233,0.459903 -1.7539511,0.498892 -1.7539511,0.481832 z"
       id="path47"
       inkscape:original-d="m 9.3625739,17.038814 c 0,-0.08298 2.1076311,-4.383065 2.1483021,-4.383065 0.04035,0 1.03209,0.733276 2.418404,1.788123 0.898515,0.68368 1.172674,0.911006 1.128502,0.935725 -0.06686,0.03742 -0.875138,0.289255 -1.770203,0.551546 -0.336976,0.09875 -0.621299,0.190533 -0.63183,0.203966 -0.01053,0.01343 -0.07068,0.02824 -0.133657,0.03289 -0.06298,0.0047 -0.120455,0.02631 -0.127722,0.0481 -0.0073,0.0218 -0.02805,0.03047 -0.04617,0.01926 -0.01813,-0.01121 -0.572382,0.13352 -1.23167,0.321611 -1.6120233,0.459903 -1.7539511,0.498892 -1.7539511,0.481832 z" /><path
       style="fill:#999999;fill-opacity:1;stroke:none;stroke-width:0.0382927"
       d="M 8.9869073,16.440922 C 8.741341,15.672672 8.6998229,15.503651 8.7393336,15.433049 c 0.05092,-0.09099 2.0467754,-2.170676 2.0653504,-2.152101 0.02067,0.02067 -1.5953528,3.556761 -1.6541333,3.619487 -0.00687,0.0073 -0.080514,-0.199445 -0.1636434,-0.459513 z"
       id="path48"
       inkscape:original-d="M 8.9869073,16.440922 C 8.741341,15.672672 8.6998229,15.503651 8.7393336,15.433049 c 0.05092,-0.09099 2.0467754,-2.170676 2.0653504,-2.152101 0.02067,0.02067 -1.5953528,3.556761 -1.6541333,3.619487 -0.00687,0.0073 -0.080514,-0.199445 -0.1636434,-0.459513 z" /><path
       style="fill:#b3b3b3;fill-opacity:1;stroke:none;stroke-width:0.0382927"
       d="m 9.9561113,17.116705 c 0.4598097,-0.150141 5.3499787,-1.555702 5.3629967,-1.541463 0.01015,0.0111 -0.06215,0.254867 -0.312401,1.053378 l -0.171014,0.545672 -2.516376,-0.0038 c -2.127141,-0.0032 -2.492684,-0.01152 -2.3632057,-0.0538 z"
       id="path49"
       inkscape:original-d="m 9.9561113,17.116705 c 0.4598097,-0.150141 5.3499787,-1.555702 5.3629967,-1.541463 0.01015,0.0111 -0.06215,0.254867 -0.312401,1.053378 l -0.171014,0.545672 -2.516376,-0.0038 c -2.127141,-0.0032 -2.492684,-0.01152 -2.3632057,-0.0538 z" /><path
       style="fill:#b3b3b3;fill-opacity:1;stroke:none;stroke-width:0.0382927"
       d="M 11.435206,12.111899 C 11.168087,11.281314 9.8428442,6.5719751 9.8688985,6.5459209 c 0.011114,-0.011114 0.1925445,0.048451 0.4031785,0.1323679 0.337749,0.1345584 4.033086,1.6641027 4.980985,2.0616889 l 0.357187,0.1498185 -0.318895,0.2674916 C 14.450399,9.8626883 12.061735,11.79628 11.615843,12.132565 l -0.140027,0.105607 z"
       id="path50"
       inkscape:original-d="M 11.435206,12.111899 C 11.168087,11.281314 9.8428442,6.5719751 9.8688985,6.5459209 c 0.011114,-0.011114 0.1925445,0.048451 0.4031785,0.1323679 0.337749,0.1345584 4.033086,1.6641027 4.980985,2.0616889 l 0.357187,0.1498185 -0.318895,0.2674916 C 14.450399,9.8626883 12.061735,11.79628 11.615843,12.132565 l -0.140027,0.105607 z" /><path
       style="fill:#999999;fill-opacity:1;stroke:none;stroke-width:0.0382927"
       d="M 15.278802,8.5605019 C 15.089252,8.4804957 14.382751,8.1873706 13.708799,7.9091126 12.19864,7.2856054 9.9235,6.3316292 9.9017122,6.3127842 9.8928538,6.3051222 9.9273172,6.2534557 9.9782977,6.1979699 10.063694,6.1050269 13.111322,3.2802904 13.90602,2.5575062 l 0.345734,-0.3144489 0.08251,0.3527417 c 0.172022,0.7354472 1.346614,6.0330715 1.346614,6.0734757 0,0.058801 -0.01409,0.054988 -0.402073,-0.1087728 z"
       id="path51"
       inkscape:original-d="M 15.278802,8.5605019 C 15.089252,8.4804957 14.382751,8.1873706 13.708799,7.9091126 12.19864,7.2856054 9.9235,6.3316292 9.9017122,6.3127842 9.8928538,6.3051222 9.9273172,6.2534557 9.9782977,6.1979699 10.063694,6.1050269 13.111322,3.2802904 13.90602,2.5575062 l 0.345734,-0.3144489 0.08251,0.3527417 c 0.172022,0.7354472 1.346614,6.0330715 1.346614,6.0734757 0,0.058801 -0.01409,0.054988 -0.402073,-0.1087728 z" /><path
       style="fill:#999999;fill-opacity:1;stroke:none;stroke-width:0.0382927"
       d="m 12.004773,17.142965 -2.010369,-0.01288 0.440366,-0.133154 c 0.901259,-0.272514 4.835444,-1.394848 4.84743,-1.382861 0.0068,0.0068 -0.09451,0.360526 -0.225234,0.785962 l -0.237677,0.77352 -0.402074,-0.0089 c -0.221141,-0.0049 -1.30674,-0.01465 -2.412442,-0.02173 z"
       id="path52"
       inkscape:original-d="m 12.004773,17.142965 -2.010369,-0.01288 0.440366,-0.133154 c 0.901259,-0.272514 4.835444,-1.394848 4.84743,-1.382861 0.0068,0.0068 -0.09451,0.360526 -0.225234,0.785962 l -0.237677,0.77352 -0.402074,-0.0089 c -0.221141,-0.0049 -1.30674,-0.01465 -2.412442,-0.02173 z" /><path
       style="fill:#b3b3b3;fill-opacity:1;stroke:none;stroke-width:0.0382927"
       d="m 15.626029,14.541666 c 0.143741,-2.895372 0.255486,-4.9730964 0.277016,-5.1506675 l 0.02673,-0.2204781 1.013247,1.1062516 c 0.557285,0.608439 1.019223,1.124183 1.026529,1.146099 0.01663,0.0499 -2.275714,3.49215 -2.325581,3.49215 -0.02188,0 -0.02906,-0.149385 -0.01794,-0.373355 z"
       id="path53"
       inkscape:original-d="m 15.626029,14.541666 c 0.143741,-2.895372 0.255486,-4.9730964 0.277016,-5.1506675 l 0.02673,-0.2204781 1.013247,1.1062516 c 0.557285,0.608439 1.019223,1.124183 1.026529,1.146099 0.01663,0.0499 -2.275714,3.49215 -2.325581,3.49215 -0.02188,0 -0.02906,-0.149385 -0.01794,-0.373355 z" /><path
       style="fill:#b3b3b3;fill-opacity:1;stroke:none;stroke-width:0.0382927"
       d="M 17.247045,10.280541 C 16.20822,9.1371496 15.989065,8.887957 15.98809,8.8490353 c -8.27e-4,-0.033031 1.159031,-1.9583751 1.524138,-2.5300429 0.206607,-0.3234953 0.21491,-0.3120354 0.249195,0.3439436 0.01321,0.252732 0.06837,1.2655223 0.122576,2.250645 0.05421,0.9851226 0.09333,1.872081 0.08693,1.971018 l -0.01163,0.179886 z"
       id="path54"
       inkscape:original-d="M 17.247045,10.280541 C 16.20822,9.1371496 15.989065,8.887957 15.98809,8.8490353 c -8.27e-4,-0.033031 1.159031,-1.9583751 1.524138,-2.5300429 0.206607,-0.3234953 0.21491,-0.3120354 0.249195,0.3439436 0.01321,0.252732 0.06837,1.2655223 0.122576,2.250645 0.05421,0.9851226 0.09333,1.872081 0.08693,1.971018 l -0.01163,0.179886 z" /><path
       style="fill:#999999;fill-opacity:1;stroke:none;stroke-width:0.0382927"
       d="M 9.7455012,4.1008254 V 2.1254442 l 1.6178678,0.020221 c 0.889828,0.011121 1.832213,0.030232 2.09419,0.042467 l 0.476322,0.022247 -0.246565,0.2352428 C 13.551705,2.5750051 13.095722,2.9995675 12.674022,3.3890935 12.252321,3.7786196 11.476893,4.4956853 10.950848,4.9825729 10.424804,5.4694604 9.9384009,5.9147093 9.8699526,5.9720148 L 9.7455012,6.0762067 Z"
       id="path55"
       inkscape:original-d="M 9.7455012,4.1008254 V 2.1254442 l 1.6178678,0.020221 c 0.889828,0.011121 1.832213,0.030232 2.09419,0.042467 l 0.476322,0.022247 -0.246565,0.2352428 C 13.551705,2.5750051 13.095722,2.9995675 12.674022,3.3890935 12.252321,3.7786196 11.476893,4.4956853 10.950848,4.9825729 10.424804,5.4694604 9.9384009,5.9147093 9.8699526,5.9720148 L 9.7455012,6.0762067 Z" /></g></svg>
